<mxfile host="app.diagrams.net" modified="2023-06-06T03:35:33.775Z" agent="Mozilla/5.0 (Windows NT 10.0; Win64; x64) AppleWebKit/537.36 (KHTML, like Gecko) Chrome/114.0.0.0 Safari/537.36" etag="j37PKeRBY7cOeQE8vMMu" version="21.1.6" type="github">
  <diagram name="第 1 页" id="0GSHwEfm7-DHKQL5fRBT">
    <mxGraphModel dx="2087" dy="1758" grid="0" gridSize="10" guides="1" tooltips="1" connect="1" arrows="1" fold="1" page="0" pageScale="1" pageWidth="827" pageHeight="1169" math="0" shadow="0">
      <root>
        <mxCell id="0" />
        <mxCell id="1" parent="0" />
        <mxCell id="4JRhX6lgXvvM5bHSWxXY-51" value="" style="rounded=0;whiteSpace=wrap;html=1;fontSize=16;fillColor=#d5e8d4;strokeColor=#82b366;" vertex="1" parent="1">
          <mxGeometry x="-371" y="638" width="1294" height="520" as="geometry" />
        </mxCell>
        <mxCell id="4JRhX6lgXvvM5bHSWxXY-48" value="" style="rounded=0;whiteSpace=wrap;html=1;fontSize=16;fillColor=#fff2cc;strokeColor=#d6b656;" vertex="1" parent="1">
          <mxGeometry x="-375" y="-395" width="1317" height="446" as="geometry" />
        </mxCell>
        <mxCell id="4JRhX6lgXvvM5bHSWxXY-31" value="" style="rounded=0;whiteSpace=wrap;html=1;fontSize=16;fillColor=#ffe6cc;strokeColor=#d79b00;" vertex="1" parent="1">
          <mxGeometry x="-375" y="73" width="1315" height="529" as="geometry" />
        </mxCell>
        <mxCell id="4JRhX6lgXvvM5bHSWxXY-5" value="" style="edgeStyle=none;curved=1;rounded=0;orthogonalLoop=1;jettySize=auto;html=1;fontSize=12;startSize=8;endSize=8;" edge="1" parent="1" source="4JRhX6lgXvvM5bHSWxXY-2" target="4JRhX6lgXvvM5bHSWxXY-4">
          <mxGeometry relative="1" as="geometry" />
        </mxCell>
        <mxCell id="4JRhX6lgXvvM5bHSWxXY-2" value="注解式路由选择" style="rounded=1;whiteSpace=wrap;html=1;fontSize=16;" vertex="1" parent="1">
          <mxGeometry x="-324" y="-349" width="238" height="58" as="geometry" />
        </mxCell>
        <mxCell id="4JRhX6lgXvvM5bHSWxXY-7" value="" style="edgeStyle=none;curved=1;rounded=0;orthogonalLoop=1;jettySize=auto;html=1;fontSize=12;startSize=8;endSize=8;" edge="1" parent="1" source="4JRhX6lgXvvM5bHSWxXY-4" target="4JRhX6lgXvvM5bHSWxXY-6">
          <mxGeometry relative="1" as="geometry" />
        </mxCell>
        <mxCell id="4JRhX6lgXvvM5bHSWxXY-4" value="收集所有针对Mysql迁移表的CRUD操作存储到SqlServerXXXServiceImpl" style="rounded=1;whiteSpace=wrap;html=1;fontSize=16;" vertex="1" parent="1">
          <mxGeometry x="-320" y="85" width="238" height="58" as="geometry" />
        </mxCell>
        <mxCell id="4JRhX6lgXvvM5bHSWxXY-6" value="实现 MixedXXXserviceImpl&lt;br&gt;和 MysqlXXXServiceImpl" style="rounded=1;whiteSpace=wrap;html=1;fontSize=16;" vertex="1" parent="1">
          <mxGeometry x="-320" y="208" width="238" height="58" as="geometry" />
        </mxCell>
        <mxCell id="4JRhX6lgXvvM5bHSWxXY-8" value="&lt;h1&gt;&lt;br&gt;&lt;/h1&gt;" style="text;html=1;strokeColor=none;fillColor=none;spacing=5;spacingTop=-20;whiteSpace=wrap;overflow=hidden;rounded=0;fontSize=16;" vertex="1" parent="1">
          <mxGeometry x="-393" y="-471" width="707" height="61" as="geometry" />
        </mxCell>
        <mxCell id="4JRhX6lgXvvM5bHSWxXY-11" value="" style="edgeStyle=none;curved=1;rounded=0;orthogonalLoop=1;jettySize=auto;html=1;fontSize=12;startSize=8;endSize=8;" edge="1" parent="1" source="4JRhX6lgXvvM5bHSWxXY-9" target="4JRhX6lgXvvM5bHSWxXY-10">
          <mxGeometry relative="1" as="geometry" />
        </mxCell>
        <mxCell id="4JRhX6lgXvvM5bHSWxXY-14" style="edgeStyle=none;curved=1;rounded=0;orthogonalLoop=1;jettySize=auto;html=1;exitX=0.5;exitY=1;exitDx=0;exitDy=0;entryX=0.5;entryY=0;entryDx=0;entryDy=0;fontSize=12;startSize=8;endSize=8;" edge="1" parent="1" source="4JRhX6lgXvvM5bHSWxXY-9" target="4JRhX6lgXvvM5bHSWxXY-12">
          <mxGeometry relative="1" as="geometry" />
        </mxCell>
        <mxCell id="4JRhX6lgXvvM5bHSWxXY-17" style="edgeStyle=none;curved=1;rounded=0;orthogonalLoop=1;jettySize=auto;html=1;exitX=0.75;exitY=1;exitDx=0;exitDy=0;entryX=0.578;entryY=0;entryDx=0;entryDy=0;entryPerimeter=0;fontSize=12;startSize=8;endSize=8;" edge="1" parent="1" source="4JRhX6lgXvvM5bHSWxXY-9" target="4JRhX6lgXvvM5bHSWxXY-15">
          <mxGeometry relative="1" as="geometry" />
        </mxCell>
        <mxCell id="4JRhX6lgXvvM5bHSWxXY-9" value="xxxService" style="rounded=1;whiteSpace=wrap;html=1;fontSize=16;" vertex="1" parent="1">
          <mxGeometry x="225.5" y="121" width="120" height="60" as="geometry" />
        </mxCell>
        <mxCell id="4JRhX6lgXvvM5bHSWxXY-10" value="SqlServiceXXXServiceImpl" style="rounded=1;whiteSpace=wrap;html=1;fontSize=16;" vertex="1" parent="1">
          <mxGeometry x="7.5" y="273" width="166" height="59" as="geometry" />
        </mxCell>
        <mxCell id="4JRhX6lgXvvM5bHSWxXY-12" value="MysqlXXXServiceImpl" style="rounded=1;whiteSpace=wrap;html=1;fontSize=16;" vertex="1" parent="1">
          <mxGeometry x="218.5" y="273" width="166" height="59" as="geometry" />
        </mxCell>
        <mxCell id="4JRhX6lgXvvM5bHSWxXY-15" value="MixedXXXserviceImpl" style="rounded=1;whiteSpace=wrap;html=1;fontSize=16;" vertex="1" parent="1">
          <mxGeometry x="429.5" y="269" width="166" height="59" as="geometry" />
        </mxCell>
        <mxCell id="4JRhX6lgXvvM5bHSWxXY-18" value="基于Mysql操作" style="text;html=1;strokeColor=none;fillColor=none;align=center;verticalAlign=middle;whiteSpace=wrap;rounded=0;fontSize=16;" vertex="1" parent="1">
          <mxGeometry x="20.5" y="348" width="120" height="30" as="geometry" />
        </mxCell>
        <mxCell id="4JRhX6lgXvvM5bHSWxXY-19" value="基于Es操作" style="text;html=1;strokeColor=none;fillColor=none;align=center;verticalAlign=middle;whiteSpace=wrap;rounded=0;fontSize=16;" vertex="1" parent="1">
          <mxGeometry x="241.5" y="348" width="120" height="30" as="geometry" />
        </mxCell>
        <mxCell id="4JRhX6lgXvvM5bHSWxXY-20" value="混合模式" style="text;html=1;strokeColor=none;fillColor=none;align=center;verticalAlign=middle;whiteSpace=wrap;rounded=0;fontSize=16;" vertex="1" parent="1">
          <mxGeometry x="475.5" y="348" width="120" height="30" as="geometry" />
        </mxCell>
        <mxCell id="4JRhX6lgXvvM5bHSWxXY-21" value="&lt;div style=&quot;text-align: left;&quot;&gt;&lt;span style=&quot;background-color: initial;&quot;&gt;混合模式：&lt;/span&gt;&lt;/div&gt;&lt;div style=&quot;text-align: left;&quot;&gt;&lt;span style=&quot;background-color: initial;&quot;&gt;1、主Mysql，异步SqlServer（枚举值：1）&lt;/span&gt;&lt;/div&gt;&lt;div style=&quot;text-align: left;&quot;&gt;2、主SqlServer&lt;span style=&quot;background-color: initial;&quot;&gt;，异步Mysql（枚举值：2）&lt;/span&gt;&lt;/div&gt;&lt;div style=&quot;text-align: left;&quot;&gt;&lt;span style=&quot;background-color: initial;&quot;&gt;混合模式决定实现方案，取决ThreadLocal中对应的路由枚举值&lt;/span&gt;&lt;/div&gt;" style="rounded=0;whiteSpace=wrap;html=1;fontSize=16;" vertex="1" parent="1">
          <mxGeometry x="497.5" y="381" width="378.5" height="101" as="geometry" />
        </mxCell>
        <mxCell id="4JRhX6lgXvvM5bHSWxXY-27" value="" style="edgeStyle=none;curved=1;rounded=0;orthogonalLoop=1;jettySize=auto;html=1;fontSize=12;startSize=8;endSize=8;" edge="1" parent="1" source="4JRhX6lgXvvM5bHSWxXY-24" target="4JRhX6lgXvvM5bHSWxXY-26">
          <mxGeometry relative="1" as="geometry" />
        </mxCell>
        <mxCell id="4JRhX6lgXvvM5bHSWxXY-24" value="SqlServer(老)" style="rounded=0;whiteSpace=wrap;html=1;fontSize=16;" vertex="1" parent="1">
          <mxGeometry x="-8.5" y="463" width="98" height="43" as="geometry" />
        </mxCell>
        <mxCell id="4JRhX6lgXvvM5bHSWxXY-25" value="迁移目标实现" style="text;html=1;strokeColor=none;fillColor=none;align=center;verticalAlign=middle;whiteSpace=wrap;rounded=0;fontSize=16;" vertex="1" parent="1">
          <mxGeometry x="-15" y="419" width="111" height="30" as="geometry" />
        </mxCell>
        <mxCell id="4JRhX6lgXvvM5bHSWxXY-29" value="" style="edgeStyle=none;curved=1;rounded=0;orthogonalLoop=1;jettySize=auto;html=1;fontSize=12;startSize=8;endSize=8;" edge="1" parent="1" source="4JRhX6lgXvvM5bHSWxXY-26" target="4JRhX6lgXvvM5bHSWxXY-28">
          <mxGeometry relative="1" as="geometry" />
        </mxCell>
        <mxCell id="4JRhX6lgXvvM5bHSWxXY-26" value="Mixed" style="rounded=0;whiteSpace=wrap;html=1;fontSize=16;" vertex="1" parent="1">
          <mxGeometry x="173.5" y="463" width="98" height="43" as="geometry" />
        </mxCell>
        <mxCell id="4JRhX6lgXvvM5bHSWxXY-28" value="Mysql(新)" style="rounded=0;whiteSpace=wrap;html=1;fontSize=16;" vertex="1" parent="1">
          <mxGeometry x="324.5" y="463" width="98" height="43" as="geometry" />
        </mxCell>
        <mxCell id="4JRhX6lgXvvM5bHSWxXY-30" value="使用Java的实现，可以通过防腐层性质，在后续迁移阶段，实现代码改动最小，并且具备高可维护性" style="text;html=1;strokeColor=none;fillColor=none;align=center;verticalAlign=middle;whiteSpace=wrap;rounded=0;fontSize=16;" vertex="1" parent="1">
          <mxGeometry x="-0.5" y="526" width="436" height="30" as="geometry" />
        </mxCell>
        <mxCell id="4JRhX6lgXvvM5bHSWxXY-36" value="" style="edgeStyle=none;curved=1;rounded=0;orthogonalLoop=1;jettySize=auto;html=1;fontSize=12;startSize=8;endSize=8;" edge="1" parent="1" source="4JRhX6lgXvvM5bHSWxXY-32" target="4JRhX6lgXvvM5bHSWxXY-35">
          <mxGeometry relative="1" as="geometry" />
        </mxCell>
        <mxCell id="4JRhX6lgXvvM5bHSWxXY-43" value="生成/监听维护" style="edgeLabel;html=1;align=center;verticalAlign=middle;resizable=0;points=[];fontSize=16;" vertex="1" connectable="0" parent="4JRhX6lgXvvM5bHSWxXY-36">
          <mxGeometry x="0.175" y="-1" relative="1" as="geometry">
            <mxPoint as="offset" />
          </mxGeometry>
        </mxCell>
        <mxCell id="4JRhX6lgXvvM5bHSWxXY-32" value="Apollo决定新表流量控制比例" style="rounded=0;whiteSpace=wrap;html=1;fontSize=16;" vertex="1" parent="1">
          <mxGeometry x="-8.5" y="-102" width="120" height="60" as="geometry" />
        </mxCell>
        <mxCell id="4JRhX6lgXvvM5bHSWxXY-45" value="" style="edgeStyle=none;curved=1;rounded=0;orthogonalLoop=1;jettySize=auto;html=1;fontSize=12;startSize=8;endSize=8;" edge="1" parent="1" source="4JRhX6lgXvvM5bHSWxXY-35" target="4JRhX6lgXvvM5bHSWxXY-44">
          <mxGeometry relative="1" as="geometry" />
        </mxCell>
        <mxCell id="4JRhX6lgXvvM5bHSWxXY-35" value="TreeMap" style="rounded=0;whiteSpace=wrap;html=1;fontSize=16;" vertex="1" parent="1">
          <mxGeometry x="302.5" y="-102" width="120" height="60" as="geometry" />
        </mxCell>
        <mxCell id="4JRhX6lgXvvM5bHSWxXY-39" style="edgeStyle=orthogonalEdgeStyle;rounded=0;orthogonalLoop=1;jettySize=auto;html=1;entryX=0.5;entryY=0;entryDx=0;entryDy=0;fontSize=12;startSize=8;endSize=8;" edge="1" parent="1" source="4JRhX6lgXvvM5bHSWxXY-37" target="4JRhX6lgXvvM5bHSWxXY-35">
          <mxGeometry relative="1" as="geometry" />
        </mxCell>
        <mxCell id="4JRhX6lgXvvM5bHSWxXY-40" value="floorEntry" style="edgeLabel;html=1;align=center;verticalAlign=middle;resizable=0;points=[];fontSize=16;" vertex="1" connectable="0" parent="4JRhX6lgXvvM5bHSWxXY-39">
          <mxGeometry x="-0.3191" y="2" relative="1" as="geometry">
            <mxPoint x="-32" as="offset" />
          </mxGeometry>
        </mxCell>
        <mxCell id="4JRhX6lgXvvM5bHSWxXY-37" value="Random随机生成0~1值" style="rounded=0;whiteSpace=wrap;html=1;fontSize=16;" vertex="1" parent="1">
          <mxGeometry x="-8.5" y="-262" width="120" height="60" as="geometry" />
        </mxCell>
        <mxCell id="4JRhX6lgXvvM5bHSWxXY-47" value="" style="edgeStyle=none;curved=1;rounded=0;orthogonalLoop=1;jettySize=auto;html=1;fontSize=12;startSize=8;endSize=8;" edge="1" parent="1" source="4JRhX6lgXvvM5bHSWxXY-44" target="4JRhX6lgXvvM5bHSWxXY-46">
          <mxGeometry relative="1" as="geometry" />
        </mxCell>
        <mxCell id="4JRhX6lgXvvM5bHSWxXY-44" value="路由策略" style="rounded=0;whiteSpace=wrap;html=1;fontSize=16;" vertex="1" parent="1">
          <mxGeometry x="475.5" y="-102" width="120" height="60" as="geometry" />
        </mxCell>
        <mxCell id="4JRhX6lgXvvM5bHSWxXY-46" value="存储ThreadLocal中" style="rounded=0;whiteSpace=wrap;html=1;fontSize=16;" vertex="1" parent="1">
          <mxGeometry x="660.5" y="-102" width="120" height="60" as="geometry" />
        </mxCell>
        <mxCell id="4JRhX6lgXvvM5bHSWxXY-49" value="&lt;h1 style=&quot;border-color: var(--border-color);&quot;&gt;命题：SqlServer中表不停机迁移至Mysql&lt;/h1&gt;&lt;p&gt;1、通过Apollo实现上线后新表流量逐步增大分配&lt;/p&gt;&lt;p&gt;2、通过注解向ThradLocal中注入 MiexdXXXServiceImpl 中执行逻辑路由&lt;/p&gt;&lt;p&gt;3、通过Java实现+防腐层，实现上线后代码快速迭代&lt;/p&gt;&lt;p&gt;&lt;br&gt;&lt;/p&gt;&lt;p&gt;注：MiedXXXServiceImpl中会复用 MysqlXXXServiceImpl 和SqlServerXXXServiceImpl减少开发工作，并且会额外针对异步执行失败做操作指令的数据收集，用于后续补偿&lt;/p&gt;&lt;p&gt;&lt;b&gt;&lt;font color=&quot;#ff3333&quot;&gt;数据迁移需要考虑三个阶段：&lt;/font&gt;&lt;/b&gt;&lt;b style=&quot;background-color: initial;&quot;&gt;&lt;font color=&quot;#ff3333&quot;&gt;全量同步 =&amp;gt; 增量同步 =&amp;gt; 实时同步&lt;/font&gt;&lt;/b&gt;&lt;/p&gt;" style="text;html=1;strokeColor=none;fillColor=none;spacing=5;spacingTop=-20;whiteSpace=wrap;overflow=hidden;rounded=0;fontSize=16;" vertex="1" parent="1">
          <mxGeometry x="-375" y="-717" width="665" height="307" as="geometry" />
        </mxCell>
        <mxCell id="4JRhX6lgXvvM5bHSWxXY-52" value="所以，整体的实施流程如下：" style="text;html=1;strokeColor=none;fillColor=none;align=center;verticalAlign=middle;whiteSpace=wrap;rounded=0;fontSize=16;" vertex="1" parent="1">
          <mxGeometry x="-367" y="645" width="332" height="30" as="geometry" />
        </mxCell>
        <mxCell id="4JRhX6lgXvvM5bHSWxXY-53" value="" style="shape=image;verticalLabelPosition=bottom;labelBackgroundColor=default;verticalAlign=top;aspect=fixed;imageAspect=0;image=data:image/png,iVBORw0KGgoAAAANSUhEUgAAAsUAAADECAYAAAB3CFyUAAAgAElEQVR4nO3de3Bc9Z3n/ffpe7e61a3W/WpZsi1bvuALBoMBY4LDJSGELGGTkEmomc0+2RmYmprJM9md7NbW1j5bW9Q+tbXzVKo2Se3sMkOS3SwLSQgh5hYIYIwxtuWbbNmyLFn3a0vq+/U8f8h9xsJ2LmDZhv68qhJAlrpPy/3r8zm/8/19f4ZpmiYiIiIiIiXMdq0PQERERETkWlMoFhEREZGSp1AsIiIiIiVPoVhERERESp5CsYiIiIiUPIViERERESl5CsUiIiIiUvIUikVERESk5CkUi4iIiEjJUygWERERkZKnUCwiIiIiJU+hWERERERK3pKGYtOEQsFcyqcQKUmmCQXTxNTwErmiFsbWwvgSkSuvmA2vxyG2ZKE4ms7TNRzje3tHmY5nuQ5fu8jHUq5gcmY6yTNdkxwZjWlsiVxBw3NpXj0VYfeJyHV50hb5OMvmTc5Op/jRwQlOTiSuuzG2ZKE4mc1zZjrJC90zzKfz190LF/m4KpgmI/MZftM3R990ClODS+SKmYpnOTgUZf9g9FofisgnTq5gMhpN89rpWc5FUpjX2bSOY6keOF+AeDrP2HyGXP76etEiH2emCalsgal4lngmf60PR+QTJZ0rMJvMkcrpvCVypRVMk2SuwGQ8SyJbuNaHcxEttBMREZGryjTNj3yXq1AoUChcf8FKPr4UikVEROSqMU2TXC5HPv/R7nRFo1Hm5uYUjOWKWbLyCREREZEPGhwc5Fe/+hUVFRU8/PDD2GyL5+cymQzxeJxsNmt9zefzUVZWhmEY1tdeeOEF5ufn+fKXv0xZWRknT54kHo9bIdnhcBAOhxkeHiaVSi16Drfbzfr165mfn6e7u5uhoaHf69hbW1vZunUr4XD4w758uY4pFIuIiMiSOHHiBGfOnCESiVhfi0Qi/PrXv8br9ZJIJLDb7dafdXR0YLfb2bNnD4VCAbvdztjYGJs3b+aBBx7A5XJZ3zsyMsLMzAzZbJZ8Ps/JkyeZnJwkl8uRyWRIJBKEw2EOHz5MTU0NdXV12O120uk0R44c4fHHHycSiXDgwAESiQT5fB6/308oFMLtdl/0Wnp6epiZmaG9vV2h+BNKoVhERESuONM06erq4ujRoxiGgcPhwO12Y7fbaWxsJB6Pc+zYMWprawE4ffo0iUSCQCDAvn37uOGGGwgEAnR1dTE7O0t1dTXz8/PW4x/v7iYWjfKb3/yG5cuXk0wm8fv9eDwe5ubmGBkZIZlM0tvbS21tLcuWLcPlcjE5Ocnx48eJRqMYhkEwGKSyspKDBw/S1NTEypUrKS8vv+j1xGIxHA7Fpk8y/e2KiIjIkkgkElRWVrJ8+XLS6TS5XI6Ghga2b99Of38/U1NT3HPPPQD87Gc/w263k8lkCAQCPPTQQzQ0NNDX18fY2Bjvvfcep06dgvMlFN3Hj5NOp3njjTdIpVIEg0EqKipoa2sjmUwSj8fx+/1MTEywbt06br31VsrKyjh16hQNDQ34fD7q6uqoqqpibm6O5557jo6ODvL5/CXrnVesWEEoFKKysvKq/g7l6lEoFhERkSvOMAx27txJoVAglUrx2muv8fOf/5yHH36YjRs3kkgkGBoaYs2aNQA4nU4cDgc9PT3WYrxMJkM+n6e9vZ2vfOUr5PN53G43hmHw3e9+l9nZWR5/4gmqq6p4//33+eUvf8mWLVtobW1lcHCQBx98kMHBQVKpFLOzs9jtdoaGhmhsbMTr9dLS0kJDQwNHjhxhYGCAV155hbfffntR7XLRtm3buO+++6ioqLjav0q5ShSKRUREZEk0NzfT39/PyMgIq1evZtOmTczMzJBMJikUCng8Hut7ly1bBsDAwADT09P84Ac/wOfz8d5773HzzTfT19fH66+/zhNPPIHf78fr9ZJMJikPBCgvL2fbtm0cPXqUs2fPWvXGbW1tTE9PMzg4yMDAADabjXfffXdRiUQqlWJubo5wOMy/+lf/ipaWlku+Fp/PRzAYXPpfmlwzCsUiIiKyJJxOJ2VlZSQSCfbu3Ut5eTn33ncf+VyOXC6H1+td9L2wMMPs8XhYvXo1oVCI7u5uvF4vpmnS39/PgQMHuPHGG7HZbIv+V1ZWxp133skLL7zAnj17qK+vJxQKsX79eo4fP86pU6coKyvjyJEj/OVf/qU145tOp5mdnSWfz/Pcc88RCAQueh2ZTIZwOMwtt9zCzp07LzmTLB9/CsXXWD6fZ35+3lpE4Pf7L/t92Wz2orYyF7Lb7Xg8HuuDpeh3NUj/bYPbNE0ymQznzp2jvLzcWhBxqccvFApMTk7i8Xjwer04nU4KhQLJZJKpqSlqamooKytb9LMDAwP4/X6CwSAOh+Oyx6oPIPl9JJNJotEohUKBmpoaDMNgYmKCfD5PfX09hmEwNTVFLpfD7/cvGm+JRIJsNnvZ92BxkdCF4+v33Xzgt71/I5EIkUiEcDhMeXn5Re2pis+Ty+WIRqPk83mqqqrI5XLY7XbGx8cpFArU1tYuWgSUyWSIRqMkk0kaGxsxDEPjS64q0zQ5e/Ys586dY2ZmhnQ6zcjICEODg0xNTXH69GlsNht79+61fiYYDDIzM4PH4+GGG26gpqaG3/zmN3g8HiorK1m9ejWHDh1i1apVFz2fYRisWrWKUChELBbD7/fjdDppaGggEAhw+vRpotEo5eXltLe3W+cjt9vNypUr+Wf/7J/hcrkuOR6GhoYYHh7m3LlzGi+fYArF11A+n2dycpLXX3+dsbExbr/9djo7O/H5fBd97+zsLGfPnmV6ehqfz3fRoMzn88TjcTZs2EBTUxOxWIy+vj4mJyd/64nbNE08Hg/19fW0t7djGAapVIpEIgFgfbi89dZbrFy5ksrKSuu5DcPAZrMxOzvLzMwMpmnS3d1NY2MjTqcTt9uNz+djZmaG06dPs23btotC8d69e2lra6O5uZnZ2VlGR0cvCvVFmzZtuqhPpciFIpEIp0+fJpvNctttt2EYBt3d3USjUbZt24bf7+fNN98kGAzS0dFhjaV8Ps97771HNptdNHNVFI/HcbvddHR0UF9fTzabpbu7m4mJid/5fiwUCnR2dlJXV4fD4SCbzTIyMkJVVRVer5fh4WGOHj3K2rVr6ejosIJt8XFTqRSnT5/G5/MxMTFBNBpl06ZNDAwMsGLFCrq6uigUCuzateuiYz5z5gxDQ0M88MADHD58mEQiccnPjnA4TGNjoxYQyRVVnNk9deoUmUyGZcuWEY1GOXbsGEeOHCESidDW1sb+/futnymeCxwOB6GKCiorK/F6vRiGQXV1Nbt27aKrq2tRG7cLpdNpnE4nfr+fTCbD5OSk1XniwIEDnDx5knvuuYdQKITNZqOvr4+hoSEKhQIdHR0XPV6xa0ZzczP79+/X+ecTTqH4Gsnn80xPT/Pee+/xgx/8AJvNhmmauN1uVq1adVGPxHPnzvHLX/6SsbExli1btmhGqFAokEgkOHr0KH/2Z39GU1MTw8PDPPXUUxw7dgyn03nZD5BMJoPf7+fWW2/liSeewOl0MjU1RW9vL6ZpsmPHDuu21/z8vDXjZBgGgUCAQCDA0NAQhw4dIpvL0X38OJs3b2Zqagqn08nKlSvp7+9ndHSU9vZ2gsEghmFgt9vJ5XK8+eab1gKIffv2sXfvXqqqqhbNlhU/2P7rf/2vtLW16UNJLmt2dpaenh4SiQSbN29mZmaGgwcPMjY2Zq16/5//839y0003EQgErNmnTCbDD3/4Q1wuF21tbRc9bm9vL263m0ceeYS6ujpisRhPPfUU77333m8NkqZpMjw8zL/8l/+Se++9l0AgQDQa5fnnn+eee+5h2bJljI+Pc+DAAWsBkcvlsm4FBwIBIpEIzz77LJ2dnczMzDA4OEihUODdd9/lwQcftE7Ut912G+l02rqVPDU1xfHjxzl+/Djbt2/nu9/9LtFo9KJbw5FIhLVr1/KZz3yG7du3X/G/EyldxfNEdXU1mUyGQqFAWVkZp0+fZmBgAJfLRVVVlfV9LpeLUChEMpkkk80yNDREJp1mbm6OYDCI3+/nhhtuYP369Ze8o5LNZjl8+DATExMEg0Hm5+fZv38/N910E36/H4fDQTQapb6hgXQmg9PpZO/evbz44ouX3RXPZrPh8/nYunUrdrv9khfN8smhUHyNzM7Osnv3bp577jm+8pWvsHnzZn784x/zk5/8xFqZe6F8Pk8ul8Nms+FyuRbNphYKBfL5/KJ94ItbaP7FX/wFGzZsuGTPRVjYWWj//v309/cvOrbj51vd7NixA4Dh4WEOHTrEW2+9ZYXi++67j127dllBde/evdYqY6fTaa3qffrpp6mqqmLfvn2cPHkSv99PZWUlw8PD9PX14XA4GBkZAeCf//N/zu23377ooqC3t5e//uu/Bn7/29VS2oqlPP/xP/5HJqemCAaD/N3f/R1jY2O0t7ezf/9+Tp8+ze23385Xv/pVYOHiy+PxXLJpv91uxzTNRaVCfr+fRx55hD/+4z++7Psym83yrW99yyolgoVep7t377Zmj2FhfO3Zs8faXMDj8XDbbbfx9a9/ndraWjZv3ozT6WRsbIxoLMbo6CiPPvook5OTTE1NkUgkePHFFzEMg/LycsrLyxkYGODgwYMMDQ3x1ltvkc/neeyxx9i5c+eiY3znnXc4d+7cby3NEvkwDMNgy5YtbN68mVwux8zMDK+88gpHjx6lpaUFh8PBgQMH6Ozs5OGHH2bNmjUEAgHefvttJsbH+X//03/C5XJx8uRJvvCFL1iPealJHtM0GRoa4plnnqGxsZG//Mu/ZGJigpdffpnp6WneeustbDYb99xzD//f3/4tDrudO+64gwceeIBPfepTv/N1vPHGG0QikUveyZVPDoXiq6xQKHDo0CF+/vOfMz4+zsMPP8ynP/1p/H4/f/RHf8TLL7/M977/fW7aupUHH3yQUCiE3W63Zn8SiQQzMzOLZopN0ySdTuNwOKwPC9M0rYD6wx/+kEgkcskr4fr6+kU7BF14nBd+f11dHTt27OCzn/2sdYUeDofx+/288847vPjii0xOTrJ//366u7uprKykc+1axsbHOX36NFu3bsXhcLBv3z4cDgcPPfQQyWSSbDZLJpMhm80yOjrKgQMHeO211xZ96EWjUWuXIpHLOXDgAC+++KJ1cQZYtz1XtLcTCoXYu3cvtbW1VFZWWu+/IofDQTKZZHp6+qLHTiaTBAKBRePLMAwGBgb4yU9+Qk9Pz0U/4/V6WbZsGfF4/JIlCxeOr/r6eu666y62bt2K2+3GZrNRXl5OMpnk+eef591332VwcJCRkZGF+uJslkQiweDgIHa7nY6ODmZmZnj55Ze5/zOfoa2tjUwmQzqdJl8okE6nGRsb44c//CGvvfbaomMZHByktbWV1tbWD//LF7mEfD7PkSNHOHToECdOnGBiYoKKigr++I//mNWrV+N2uxkbG+PIkSN8//vfJxAIcNddd+Hz+Vi/fj333XcfoVCI3bt309DQQDqd5uzZs+zevZt0Os2BAwfo6OiwulD83d/9HW1tbezYsYPly5eTyWSszhd33HGH1ad42bJl/PjHP2Z4eJhPf/rTtLe3X3TsXV1d7Nmzh/n5edxuN3v27GHr1q0aJ59wCsVXST6fZ2Zmhp/+9KccPHiQTCZDe3s7tbW11mxPPp+nsbGRiYkJfv3rX9Pd3c19991n1S9OTk5SKBSYnZ1ddOuoGIAdDgfvvvuuNUtcXMG7bt06crncJWezbDabVXecSqV45513OHLkCEePHiWTyfD8888zPT3NyMgIgUCAnp4e67kNw6CtrY1wOMzq1asZHh626qTb2tpwOZ0cOXKE+fl5Nm3aRD6fZ3BoCLvNxooVK6iurubVV1+lo6ODmpoaYCF8r1u3jlQqRU9PD3a7nVtuuYW1a9cSDocvecvs46hggoHVg16ugHA4TEtLy8It10yGhoYGBoeGqKiosE6oPp+PsrIyGhoamJ6eZmZmhj179tDb22vdiZmZmbnosYslSnv27GF4eJj1GzZQKBQIhUJ0dnZesoTC6XQSCoV4/fXXARgfH+fEiRNWLfI777xjlSpduOC0eJHqdrspLy9nzZo1jIyMcO7cOaLRKG632/qzQ4cO0dnZyQ033IBpmjz305/S1ta20G4qEGBmZga73c6GDRuorq5m7dq1rFu3zrqA3bRpE+vWraOmpsZqh/VxZ5pgYp4fXxpg15JhGMzNzZHL5Whvb+fGG2+krq6O1atXEw6HrZ3tijW/AwMD+Hw+2traqKmpYdWqVXg8Hnw+Hw6HA5fLhcfjoaKigkwmw65du+jo6MDj8VjlfvX19Sxbtgy32011dTU333wzy5cvZ9OmTbS0tGAYBj6fD5fLRUNDAxUVFZfcpa68vJy6ujo8Hg92u51du3axcePGy7ZrKyWFgnn+jvG1PpIrT6H4KjFNk3w+z9TUFC6Xi4qKCrxeL319fRw+fJhYPE64ogKXy2XNYl14u9bpdOLxeMjn85imSTabJZvNYhiGdRItdnyw2WyLQnFzczPDw8OMjo5aoTKfz9O+YgVOh4NYLGYd3+joKLFYjEAgQD6fZ2BggGg0it/vp1AoMDQ0ZL2mhVu1QcDEZrPR0dFBNpulsrKS+vp67HY7LqeTivOLJebm5qg8v8K+pqaGyspKAoEAmUyGTCaD3W4nlUqRy+VIn68jK87M+Xw+xsfH8fl8l+3QsZTSuQKRRI5EtgB8+BIOk4WTdu9Uiky+gM9lJ+i1U+Fx4Hfb8TltuB02nPaFEpVP4GfOkmloaKCzs5NIJEI8HmfVqlXs3buX6Pw8ExOTTE9PW4tIh4aGSKfT1sJNu92O3+8nm81au1mlUinrhOh0OvF4vRjn79gU/16KO3XNzc0RjUatMetwOAiHw2zYsMEqx0gmk0xOLhzH+vXryeVyjI6OMj8/j9PpJJPJMDIyYo1Rr9dLVVUVpmnicrmsMqhEIkFjYyN2u51wOGx1eykrK8Nus9G6bBmNDQ0YLKzkL96JKZZZ5XI5UqkU09PTJBIJKioqSCQSRCIR8vn8ZdcfLKV4Jk8kmSOTu3Rd5x/2WAWm4lkiiRzlXgcVXgdBjx2/206Zy47bYeCwaXxdDTabjYaGBsrLy6moqKC+vt7aeKPI7/ezevVqVqxYwcDAAG63m6qqqkXft2LFCmDhvFVTU8P27dutEqYLQ+2OHTtwOBzWObC6upr777+f1tbWRYu06+vr+dznPodhGJdd2F28i1osKwoEAlRUVHwsyydSuQJzyRzxzMW79P0hiuevU5NJcgWTMpedoNdByGMn4LbjddrwOGw4Psbnr+syFJsmYPCx/IVejt1uJxQK8cADD1AoFOjv72d4eJhYLMbp06c53dvLTVu30tLSQn19PTfeeKN1Ne1yuaitrSWRSDAxMYHH4yGRSJBKpbDZbFRUVFglFDfffDO33nor3d3dwMKH0vz8PO+++y4nT56kpqYG0zQZGBhg165drFy1yqoRdjqddHR0UFdXx/T0NHNzczQ0NBCLxcjn89ae8MVZM6fTSThcQVfXYU6dOsX69etJpVJs2bKFSCSCYRhs3bqV2bk5xsbHGejvxzRNamtrmZub48SJE9be9IlEgng8Tl9fn/Xaiu16ikG/tbWV+vr6axKKJ2JZ3uidZXAuzUcta86bJm/3zTOfzlPhddAYctFU7qYu4KLa76Ta76SqzEmF10HI68DtsGG7goPBPP9/n7SrfLfbTVlZGT6fD9M0CYVClJWVMT09jWkOks1mcbs91i3ViooKNm/ezE033cS6des4fvw4sViMUChEPB5ndHSUtrY2vF4vsViMYCjEli1buG37dutujd1uZ2Zmhl/+8pfWblywUDccDofZtm2bdSIuLy+nra2NQCDAihUrmJ+fp6qqimAwiMfjYcuWLYRCIQzDIJlMWrXF+/btI5vNUltXRzgcJpvN0tDQQDKZ5N5772V0dJQzZ87Q3NxsdXyZnp7m5MmT9PT0MDIyQm9vLzMzM/T09BCLxZienqavrw+v10tlZSXl5eV4PB42bdp01UNxwYSh2TR7+ucZnc985MeLJHOcmUrRP5OkLuimOeimodxFfbmLmoCTSp+T6jInFT4H5R4HXoftio6F4vj6pJ3DPqxLtU67FIfDcckyhgsVL16Lj/nBu58XlgLa7XYCgQDr1q276HEMw/idC+aKLRs/CXcbpuJZ3jsX5cR44iM/Vr5g8saZOZLZAhU+B41BN81BF7UBF1V+JzVl589fPgchz8L56+P0K7wmobh4e6tgLnwgmmbx3xf+mc2b2G3gshvYlui3aTOMhauZJXn0ixVnbYvBsb29HdM0mZub480338ThcHDfffexefPmheOz2fB6vdasUTweZ3JyEr/fT3V1NRMTE0xMTFg9GIu1yvF4HLvdvmggp1Ipq1brM5/5DNlslu9///sApM9fBRdnnDdu3EgkEmH37t309PSwY8cOotEohw8fpq6ujttuu435+Xm6urpoamqiuroaj8eDx+Omt7eX0bExbDYbnZ2dVl/isbExDh44QE9PD+vWraOpqYmenh7+3b/7d9YCiuKK/q1bt3LTTTcRiUR45ZVXcDgcfOlLX8JmsxEKhS65CGqpmSYMzKb4+wPjdI8nKFyBtX7xdH7hFhQGNgNsNgO3y0bI66A56GZdnY9tLQG2tQZoKHfjsv/+ZSOmCQXMhX9+YHzlCyZ5EzDB61y6DyubYWC3GVc0zP8hDMOgsrKSu+++m/7+flKp1KIxkU6nWbNmDTfffLMVAkdHRwmFQjQ2NlrlChs3bqSqqopz584Rj8WIRaMXhcZ0Os38/Dzf+tb/TW3tQhnQr371q4tqd8PhMK2trUQiEV566SUGBgbo7OzEbrdz6tQpOlavZkV7O8lkklOnTmEYBqtXr8bpdDI/P88zzzxDMBhk165dlJWV0djYiMPh4Omnn2b//v3kcjnWrVuH1+vljTfe4Gc/+xmnTp1i2bJlrFq1isbGRu69915uv/12Tp06hWnCF7/4MCtWrCAYDFJWVnbJ28hLzTRN+qZT/KRrksOj8Y/8eNm8SSZbIF8wOT2ZwmaA3W7gcdkIeZ00BFxsaijjltYAmxr9NIX+8PFVPH+ZF5y3iv/M5U0MAxx2A+cSDQDDMHDYWLLz4wddeNfywpacS6V4R8PpdGIYBrlczmqNdqHiHdULz5UXKhQKv7X3OGCtxbnw9RTO1+EXu2V8GMVuG8U7TdfS6HyGX52c4RfdF5eGfRgXnb/sBi6HnQqfnWUhNxvqfWxrKeemlgANQTeOj1EqvqqfgCaQyxdIZArMpnJMx3NMxjNMxLKMRbOMzGcYm88wFc+yosrDDQ1lBD1X/hBtBlSXudi2rHxJg8GlFAoFnn76aQ4cOEA0GiWTyTA6OsrY2Bi9vb1We5rKykq+/e1vU1NTg8PhsGZyKysrqaysJJvNUlZWZpVbFGuKLyefz5NMJpmfn7dun+bzF99KicVi/OhHP+LkyZPccsstNDU1cfr0aWDhg7FY7/xf/st/4W/+5m+48cYbGRgY4KWXXuLw4cPcfffd9PT08Mwzz9DZ2cnjjz/Obbfdxne+8x0ikQibN2+mra0N0zT5wQ9+wL//9/+eTZs24XA4OH36NHa7nf/23/4biUTCCgbRaJTKykq+/OUvL9oS9Gq6oc7Pdx9aQTpX+AjFE8D5k+drp2eJJHMEPQ4ayheussO+hZnhMpcdj9OG227gctiw/wEn1myhQCJdIJLMMZ3IMhXPMjafZSyWYSyaYTyaJZbOUeF1sqM9iNe5NDXaTUE3q2t9VJdd/ZPBhYtM33//fQBWrly56OT23HPPkcvlFnV58Xq9hEIhwuEwiUQCt9tt/ffc3JzVu/tyzxmPx5mfnwcgeZlODuPj47z66qv8/d//PX/1V39llXgUHyMWi/H0009z/PhxtmzZQmtrK+fOneMf/uEfcLvdBINBXn31Vfr6+njooYe4++67KS8v55VXXmFkZITHH38cr9fLnXfeyfLly9m/fz89PT1Wu6u9e/fS09PD6OgoJ05088wzzxAOh7n55pu55ZZbPnQA+ChsNoNbW8tpr/KcL0/6aAZmUhwbSzCbytMcclHnd1kzV8HzZUqu82PLZTd+7/FlAvl8gWS2wHQix2wix2Qiy0Qsy3hs4Tw2OpdhfD5DdcBJZ52P1oql+byq8DrorPXRHPIs+fmrWM6WTCYBrLZkxdaBV1qhUODMmTMcOHCAu+66C6fTybFjx6x2bMWL0mw2y//5P/+H+fl5HnnkEWtdyoXHPTU1xauvvnrZRdqFQoF169axbt26RWUR0WiUl19+mbGxMZ544okP9Tr27dvH0NAQy5Yt49Zbb/1Qj3GldNb6+M6nWviz7Q0f7YHMhTudL/VEiGUKVHgc1Aec1ARchH1OQt6FMiXP+bHlcthwXKuZkQ/pqobiXH6h1uvUZJIz0ykGImkGZ1OMzC+crKfiWVLZAulcgclYlplEjjLXlR90dsNgZbWXjY1leJwGV7PyxTAMdu7cyYYNGxZ2qIrFOHjgAIe6urjn059mzZo1wMKt4IqKCmw2m3XFHAwGSSaTzMzMMDs7SzweJ5PJnL89bFo1UJnMxbcgh4aGOXdugImJCUzTZGpqirVr115we3khSPz85z8nGo2yY8cObr/9dmtxQ3ER3/79+xkbG+Nf/It/waZNm6iqqrI2/jh37hwrV65kdnaWpqYmli9fTiAQoLa2lnQ6TSgUshqxw0II8fl82O12YrEY4+Pj1NXV4XK52LJlC7t27aJQKBCLxXj++ed58MEHr8nmAoYBZW47bZXeK9YSrtrvIpM3cdkNPI6FOmKX3cB5/u7IhznRmSZMRLP0TiXpnU7RP5NmaDbF8FyGiXiW2USOeHrhQqjK7yBXMHE7lua9v6nRv1AOch7ZcH0AABz5SURBVBVD8czMDH19fXR1dXH69GlyuRxnzpyx3l8X3i7t6+ujtrZ2UYCuqAhjmqY1vjKZjLWJQD6fx+fz4Xa7L7qYLBQKzM/P89xzz1q3W+PxuDWWiyKRCCdPnuTAgQP86Z/+KZs3byYQCFhjYO8773Dw4EEcDge33XYb27dvx+/3c+ONN/Lss88SDAZZvnw56XSa3t5e1q9fb+0y6ff7icfjrFy5EqfTafV/LS8vp1Ao0NfXR0VFBQMDA1RUVPDQQw9x33334fP5OHz4MJHZWaampmhqaroqf1cXMoCAx47P5aVwBcbXsgoPGxv9ZPPmQo2j04bLvjC+HLbfPwR/UC6/cF46PbkwvgYiaUbn0oxEM4xHM8ycH1+pXIHagIupeJbT5cmP/HouZVmFh8oyJ00h95KfvwYHB3n55Zd58cUXrR7XgUCA7du3c88991BdXX1Fn69QKHD27Fmef/55NmzYQGNjI319fZw7d47jx49TU1Nj1b/v3buXSCRCIpGw3rv19fWsWrWKiooKhoeHeemll9i4ceMl25K+//772Gw22tracDgcDA4O0tvby+TkJG+//TZTU1OXXVhnGAZ1dXWsWrWKoaEh9u/fz/j4uHWhcO7cOYaHh3G73bz99tvWz4VCITZs2MC2bduu6O/tt/E67TQGbdSXX9xp6g9lAtVlTnIFcF7q/GX7eNYSF13VUGwzDHxOO/XlLpx2G7UBF6urvcymcswmc0wnckTiOaaTWdoqvayr9RHwXPn6NsMwqCpz4nHarmogLs4mVVRUEAwGAZibm2N8bIyzZ8/S0tKyqP4qlUrhcDisxTnFgByPx4nH49ZsbywWA6C6upqpqSmGh4cXhbeF/dq3sapjFfV1dZimycaNG2lvb7daQxXriltaWmhtbaWpqQmPx8OxY8c4ePAgfX19uN1u2tvbueuuu9i5cyfhcNhqeXXnnXdimqa1or69vZ26ujomJyd5+eWXqampIZlMcubMGbq7u1mzZo11S674oVYs4Si+1lAoZAWOYku2Yiusq81mLJTzXKkqwebQ0pSBXDi+6gIu5mq8zCVzRFI5Zs6Pr0Q2T9DjYPvycjxLNFPcEHRT4bu6t+LPnW9ZFg6Hueuuu1izZg3j4+P4/X5Wrlxp1aIXd14sBtz5+XkOHTpEWVkZhUKeaDRqbfmcSCSIxWJW/fD09DSTk5OL3oM1NTXcf//9VFZWWu3U7Ha7dQenUChgmiZOp5OmpiZ27txpbZJx/Phxjhw5wuDgIMlkkqqqKjZt2sTmzZtpamrCMAyam5t55JFHOHDggLUrXXHRz9mzZ+nr68PpdBIIBHjxxRd54IEHrAV6CztdJnjrrbdoaWmxFtK63W7r95HL5UjE46TT6av693Uhm2Fgs8OVGF9uh40K71LcYTTwuezUlbtwOBbOX7G0j7lUjkgyy2wyz2xyYZyFfQ5WVntpWaJxXuF1UB9wXZXzVzQaZXh4mNnZWT71qU9hmiZHjx5l7969BAIBHnzwwSv+nLFYjOHhYdLpNHa7nc7OTqvDRC6XI5PJ8P7771uLTj0eD/F4HKfTaZ0nCoUCyWSS0dFR1q1bd8lZ7ZmZGebn563FtcXXOjIywtTUFLF4nMHBQet7nU6ndRFbXO+SyWQ4e/Ys3d3d1NTUEAqFOHjwILW1tbS3t5PNZnG5XHR3d7N27Vqqq6uv+rqYYonDlTp/tSzRHZDrwVU9a9ltBkGvg6DXwaoLLi5zeZNUrkA0nWcylmE8lqMu4KSt0kOZ6+qvhF4qxdZq0zMzVn/UZDLJ4PmV8D2nTpE6f2IyWKh1WrduHf39/Zw9e9Y6aRU7ULjdbhwOh/V1t9vN4OAg4XB4YSX6+TqpqqoqPnX33TjsdmsR0rlz5xgZGbG2uAyFQpimSTAYZHp6mu7ubmKxGDMzM9YMUmtrK1u3bqWzs9Na0JDNZq3WVuXl5cRiMXxlZQRDIaampnjttdd477332LlzJzMzM0xPT/Paa69ZK+8jkYj1/CtXrsTlcjE3N8fIyAipVIpCocDExMQnphXbUjIMqPA5qPD94/gyWVgYkcwWmD9fsjSXyuF22LihoQy345Pze3XY7dZi0DVr1lBZWcmRI0coFApWhwbACqiGYZBIJBgZGeHIkSPAwgVXOp22FuqZpkkmk7EuSIeHhzne3U17W5sVfmtra3nooYesi8TiLnYnT57kzTffJHq+Drl4EvV6vezbt494PM7MzAxzc3O0trbS0NBg9VctHmtxwWkxbGcyGdxuN3V1dfT29tLV1UUkErF26Nu3bx9lZWWsXLmSsbEx+vv7cbtdnDhxgttvv50zZ84wPz/P4OCgVW4ViUQu2kVSLma3GYTOL369cDPgXMEklS2QyOaJJHKMx7L4nDaagm7qrsDM3LVmmiY+n4/Ozk6+8Y1vYBgGzzzzDG+88QZdXV1WKJ6ammJoaIhIJGJdABa7pExOTjI4OMjc3ByGYdDU1ERDQwN+v59cLsf8/Dx9fX3EYjE8Ho/VjxtgaGiIQCDAxo0brdCbSqWIRqO0t7ezfft2fD4fhw4doq6ujqamJnw+n7Vg2+12k0qlrMmjC9ntdgqFAvF43Gr1tmLFCkzTZGxsjHyhwOrVq4GFdQK1tbWLOllUVVXh8XiYn58nFouxcuVKvF4v09PTNDY20tzcTC6XY+J821WbzUYgENCueNex66L7hMNu4Lcv1KJcien961U2m+XUqVP09/cvrjk0TRqbmhg7X1sMC7PZ7vP1wsWNNyoqKqwf8fl8VnnFB28LJRIJq/+j3++3erMWFQoFTp8+zVtvvcXAwADV1dXcc889FAoF9uzZw9GjR63bzatWrWLHjjtZs2Y1FRUVl1xkdPDgQXbv3k0wGORP//RPWb58OSMjI7zzzjv09vayadMmvvSlL2G323nhhRfo6jrM3r3vsnfvO1ZniZaWFpqbmxkZGaGpqcla+FOcGVi5cuVFrXzkdzMAh80g4F5omdMYvPoLFa+WYg/eItM0qaio4PTp07z33nvWIk0TmJ+fx+PxWDX9xa4VRcVSierqaitAw8IC2OHhYVqXLaO+vt5qHXVhPaNpmvT19fHss89imiZlZWVWnfKBAwf49a9/TSqVoqysjLVr13LnnXeyZs0awuHwRe/vWCzG66+/TldXFytWrOAb3/gGDQ0NHDt2jO7ubnp6evj0pz/Nrl27SCQSuFwuDhw4wMTEBGNjYyQSCTZu3IjL5aK9vZ2VK1cyMTGB3++3xnJtbS1VVVXXpJ74k8BhM/C7F85fNX4XHTW/+2c+boozr8UNZ4ot1hwOh1V+tHfvXt59912GhoZwu910dnbyxS9+kcrKSk6ePMnu3butLcrXrl3LZz/7WdatW8fs7Cx79uzh9ddfX2jbWVnJ9PS0VQZ4/PhxRkdHWblyJVu3biUSidDV1bXQJ7+9neXLlzM6OsrevXtJp9N0dHSQy+UYGhpicnKScDhMLBa7ZF2xz+ezvtc0Tdra2qwex7OzszidTrZu3UogEOCXv/wlVVVVVlnT1NQUNTU11iK6eDzOqVOnmJ2dpauri7m5OQYGBsjn88zNzXH48GEc51ugFsejXH+ui1BcKsrKynj00UevynMVCgW2bduG0+m8KMja7XZ27tzJbbfdhmma1gyWYRh89oEHeOihhwgEAlaPVrj8SmOfz8euXbu44447rJmyYhnG+vXrSSQSi2ahHnnkEf7JP/knAHz1q49aodhms120yrj4nAXT5OEvfhGPx6NQLJf1wfeGYRh85StfsTq5XLgQtThjVVZWRmdn54d6vqampkvOrtpsNrZv387WrVuBhfHmcDjIZDIEg0F27NhBKBT6vcZXMBjk4Ye/yGOPPWa9huL4ikaj2Gw2PB4PLpeL8vJy/uRP/sQKE8WyKKfTST6fx+l08thjjy3qbQ7/eOdJM8VyOcU7gqdOnSIWi/GLX/wC0zS5//77yeVyHDlyhKeeeoobb7yRb33rWwwMDPCd73yH5uZmbr75ZjweD9u2beMb3/gGIyMj/Ot//a8Jh8M0Nzdz7NgxvvOd7/C1r32Nr33ta5w7d44f/ehHRCIRTNPk1ltv5X/8j//Br19/nZHRUU50d/P000+zZs0afvH887zwwgukkknGx8d5++23rXKp/v5+xsfHrZrgy+3omkwmOXbsGMlkkuXLl2MYBoODg4yNjWG323nxxRd56KGHrF7fuVyOU6dO8Z//83/m3/7bf2vVMjc0NPCFL3yBhoYG/uZv/oYdO3Zw2223WbvwORwO/uqv/ooNN9yA4xr0Apffj0LxVXa1Ql2xx+nlnrN4O7dYo1v8nrq6uoXNDM6H1N91vMXbQcWZpwvb9fh8Pjwez6KTbfF5gUXBt/gzF+6WZ/3M+XZ2V6v9kHxyBAIB63184XuquGCoeDH2Yfy29oDFsFpUDKLFnuIXjoPfxuFwUF1djd2+eDwWe7B+8HXZbLZ/nBE/f/u5WOZhGIb1Z4vG1+8I5iKxWIxDhw7xH/7Df6C/v5/Nmzfz+c9/nq1bt5JOp9m9ezderxePx7NQixuL0dTUxLFjx+js7GTFihX4/X4GBgYYGBhgfn6emZkZent7OXv2LPX19Xz2s5+ltbWVlpaWhb72AwPnN4gq57HHHluY6TUM2pYvJ1RRweqODmuzmXA4zMmTJykUCjQ2NtLY2Mjy5cs5fPgw//t//2/a2trw+XycOXOGkZERtm/fjs1m48SJE6xfv57t27fTdr4kyjRNBgcHKSsro7q6mldeeYXt27cTj8dJJBKcPHmSEydOUFdXt+iOi81mw+Vy4fV6yWazvPvuu4yMjJDL5Zibm7M+E9yuT+7d8E8CheJPsN91krtU6HV9iH6Kl2v2X5wBvtxxXer4LnfMCsTyYVzuvXklNqj4bePrUn92ufHwu57D6bz0x/TlXsOlxteHGXMiRWVlZaxZs4avfe1rHDhwgL6+PgYGBrjjjjvI5XKcO3eOSCRCT08P0Wj0fDeXCmuNyqFDhzhy5AjV1dX4fD4rfM7PzxOJRAiFQlRVVeHz+RZaj57ftAoW3ueZTIZIJILP51sosxse5u5PfYpjx46RyWRob2/n6NGjfO1rX6OpqcnaBtrlcjE2NkZVVRUAs7OzTE5OWgu7Z2ZmyOfzBAIB60I5Go0yMzNDOBxmy5YtzM3N0d/fb+02mUqncdjtfP7zn7cuTIu7zE5NTXH8+HGCwSB2u33RLpfBYJDh4WEaGxuvSRcl+f0oFIuIiMhlud1uWlpauPfee+ns7OQHP/gBPT09HDp0iA0bNuByufD5fDQ2NlodlDZu3Gj12T506BDJZNKqxy22LixeKMbjcWuTjUwmQyKRWNQN5eTJk4yNjVmb0PT391vdYGKxGNlslpMnTxIMBqmqqrK6QhS3Ni/WRBc3BSkUCtbi2QvLKkzT5NChQ5imSWNjIx0dHZimSW9vL+FwmKmpKSonJ9m5cyebNm3C5XJZx5zP53G73db26U1NTTQ3N2MYBtPT07z//vuMj4+TSCQUiq9jKiITERGR38owDOx2u9XxIZ/P89JLLxGNxehcu5ZwZSVNzc3W1umrVq2io6ODeDxOMpmkpaWFtWvXLqpnLy8vp7q6mpmZGbq6uujp6eHo0aOcOHHC2q2uuDB8eHjYCpjFzksfvPNSXOQ6MDBgzVjX1dURDAatrg8ul8uaGS6ud7mwBeOrr75KRThsbfhTU1PDsWPHuOWWW1i9ejUejwefz2fdYUmlUtZOssuXL2fLli0EAgGrQ1R5eblV019RUaHOE9c5zRSLiIjIJTkcDisIwkI4vuOOOxgYGOA3v/kN/WfPct+993K4q4vdv/oV/WfP4vf7OXXqFH/+539OXV0dAHv37sXhcFiL9dxu98IOrjYbVVVV/Pf//t9ZvXo18Xico0ePEgqFcDgcZLNZhoeH8fv9BAIB3n33XVpaWhZ1iykeVyaT4YUXXiAUCrF+/XrGxsbo7OwkHA7jdDrx+/14vV6rc1Pn2rXWph3V1dWMjo5y/PhxHn30UVpbWxkaGuKtt96iq6uLz33uc9x+xx28/NJL/MPTT1NXX09TYyPj4+NEo1G8Xi91dXVUVVWRzWb58Y9/zJkzZ6iurmZwcJDHH3+cTZs2WSH5SpRwyZWnUCwiIiKX1NDQwN133008HrdmZoPBIJ/73OfYsGEDgUCAlpYW/s2/+TfWRjRut5uvf/3rLF++nBUrVlBbW8uxY8dIpVL8yZ/8CZ///Odpbm6murqauro6/vZv/5Y333yTdDrNihUrePTRR5mamqK5uZm5uTkKhQKZTIYjR47w7LPP8hd/8ReL2iAWSzG6u7s5e/YsDQ0NtLa24nK7qauvX1g/wz8urC0udK2qqsJgobXoiZMn+cUvfsH9n/kM7e3t7Nu3j927d9Pf389f//VfW1tBp85vCPLnTzzBN7/5TSYmJ0ml0zQ0NNDb20tvby/vvfceo6OjVvjN5XK89tprjI+Ps2LFClpbW61F7XJ9USgWERGRSwoEArS1tVkt/mAhXDY0NBAOh62uC42NjZSXl5NMJjEMw9rC3DAMVq1aRUNDA7lcjmAwSDabxe12W73nW1pauP/++63t1F0uF5lMBr/fTywW48Ybb2Tm/KZXX/7yl9myZQt+v5/Vq1eTTCapra3l4YcfZmBggI6ODurq6igUCng9i3deu+GGG1ixYsVFs8wATqeTP/rqV6murmZ2dpb5+Xk6Ojp45JFHWLt2rdVpYu3atTz22GO8//77zM7OYhgGmzZuJJfL8aMf/YiysjI6Vq+2Wi86HA7m5+cZHR1lcHDQWnxXnEGX64tCsYiIiFySw+FY1OO7yOVyLaoPdjqdhMPhSz6Gz+e7ZBC98Gdra2sv+hmAiooKbrnlFmKxmLXTZGVlJTabjU2bNpHP56mqquKee+6xNuIpbkRzqQ07Lvcay8rKqKystNqZFluGtra2XlQHvWbNGqqqqpidnQUgFAqRTqetWuWGhgar0wZAJpNhcnKS5cuXW4FYs8TXJ4ViERERuS5d2C7tgxobG61/b21tpbW19Yo8Z2Vl5W/tEOF2u2lqarI27ihqa2u7ZNj1eDw0NzfT3Nx8RY5Plo66T4iIiIh8RJr9/fhTKBYRERGRkqdQLCIiIiIlb8lqihfanxg47QaGsfDfInJl2Axw2Axtfy1yhdkMA7vNwK4pI5ErzgBsGNft+WvJQrHPZWdNrY8vba4m5NV6PpErxW4zaKnwcN+aMKtrfBi65BS5YmoDTrYvD5LNm1yH52yRjzWH3UZzyM3n1lbSXuW57s5fhmma5lI8cME0yeZNUrkCfrcduz5dRK4IE8jlTdK5Ak67gduhKS2RKyVXMMnkC2AuTO6IyJVTPH+lcnncDhuu6+yWzJKFYhERERGRj4vrK6KLiIiIiFwDCsUiIiIiUvIUikVERESk5CkUi4iIiEjJUygWERERkZK3xA2ETUzU3EJkSZjaFEdkqZiAqXkjkSVzPW7stmShuGDmyeSTxLMzS/UUIiXNU4jhMfPqAS5yhZkYxEwvQ/l68oaT6+/ULfLx5rJBncdGueP6GltLFooz+QSj8ZN0TT2/VE8hUrIMYG26l8bcFD4ze60PR+QTJY+DE/kN/D+pbxElgKlQLHJFNXts/F+tLm4NO66r+zFLForzZo54dobh+LGlegqRklQ8Pbcmj1DIjkAhdU2PR+STpoCDmazJO4k0EbwUrqvTtsjH36oyky9kzIU6pevomnPJa4pRTbHIFWWe/3/TLIA2pBRZIloRI7JUzOs0HuryV0RERERKnkKxiIiIiJQ8hWIRERERKXkKxSIiIiJS8hSKRURERKTkKRSLiIiISMlTKBYRERGRkqdQLCIiIiIlT6FYREREREqeQrGIiIiIlDyFYhEREREpeQrFIiIiIlLyFIpFREREpOQpFIuIiIhIyVMoFhEREZGSp1AsIiIiIiVPoVhERERESp5CsYiIiIiUPIViERERESl5CsUiIiIiUvIUikVERESk5CkUi4iIiEjJUygWERERkZKnUCwiIiIiJU+hWERERERKnkKxiIiIiJQ8hWIRERERKXkKxSIiIiJS8hSKRURERKTkKRSLiIiISMlTKBYRERGRkqdQLCIiIiIlT6FYREREREqeQrGIiIiIlDyFYhEREREpeQrFIiIiIlLyFIpFREREpOQpFIuIiIhIyVMoFhEREZGSp1AsIiIiIiVPoVhERERESp5CsYiIiIiUPIViERERESl5CsUiIiIiUvIUikVERESk5CkUi4iIiEjJUygWERERkZKnUCwiIiIiJU+hWERERERKnkKxiIiIiJQ8hWIRERERKXkKxSIiIiJS8hSKRURERKTkKRSLiIiISMlTKBYRERGRkqdQLCIiIiIlT6FYREREREqeQrGIiIiIlDyFYhEREREpeQrFIiIiIlLyFIpFREREpOQpFIuIiIhIyVMoFhEREZGSp1AsIiIiIiVPoVhERERESp5CsYiIiIiUPIViERERESl5CsUiIiIiUvIUikVERESk5CkUi4iIiEjJUygWERERkZKnUCwiIiIiJU+hWERERERKnkKxiIiIiJQ8hWIRERERKXkKxSIiIiJS8hSKRURERKTkKRSLiIiISMlzLNUDG4BhGBjK3SJLwMQwbGDY0LWtyBVm2jEMG3ZDo0tkKdgMMIxrfRQXW7JQDAY2w4HLXgaYS/c0IiXKsJWBvQxMJwuXoSJyJRimA4fpw++ALAYFjS+RK6rMYeC8DoeVYZrmkiTWgpkjlYsymxlfiocXKXmBfBSvmcFxHX6wiHycmRjMFgKcyreTw4UuOkWuLK8dWn02wq7ra2wtWSgGMM0CBQpL9fAiJc0wC+fLlK71kYh88hRMgxx2zhcDXuvDEflEMWChPOk6G1pLGopFRERERD4OtIZAREREREqeQrGIiIiIlDyFYhEREREpeQrFIiIiIlLyFIpFREREpOQpFIuIiIhIyVMoFhEREZGSp1AsIiIiIiVPoVhERERESp5CsYiIiIiUPIViERERESl5CsUiIiIiUvIUikVERESk5CkUi4iIiEjJUygWERERkZKnUCwiIiIiJU+hWERERERKnkKxiIiIiJQ8hWIRERERKXkKxSIiIiJS8hzX+gBERD6Wxl7he39/kLnf+Y1BNn/9m+yqW/ivIz95ku7V3+ZLN1zwLYf/F9+b3Mk3765dmmMVEZHfSaFYROTDar2Pb//TDcA4r3zvKaZv+UDYZZxXvvfTa3RwIiLyh1AoFhH5iI785CkOzgG7n+TJ3cWvBtn89Yeu4VGJiMgfQqFYRORDG+eV7z25EIiDm3nsm7uoBcZf/R4/5SF21cErl/ipgUXhuegpnjxw/l8veCwREbk6FIpFRD60WnZ989vsgoUa4yefXKgxbr2Pb//TWmD8kj+17N4PllmIiMi1plAsIvKhfWCm+NvfXpjdPfy/ePLJX0FwGcuAymt7kCIi8ntQKBYR+dCKM8ULC+2eevLg+a8v475vf5sNl1lod+nyiWXc9+0vsWGpD1lERC5JoVhE5CO7oIwCYGz8MoUT44xHFrdoK379le+9vsTHKCIiv41CsYjIR3KE//Xkrxg4/18L9cK1l14kN3aEM7TzUN2l/lBERK4lhWIRkQ+r/1c8+eTiL11cGhFkMwDjvPKzg7DiMXWVEBG5DikUi4h8WNbmHZdzQU3x4dc5yGYe0651IiLXJcM0TfNaH4SIiIiIyLVku9YHICIiIiJyrSkUi4iIiEjJUygWERERkZKnUCwiIiIiJU+hWERERERKnkKxiIiIiJQ8hWIRERERKXkKxSIiIiJS8hSKRURERKTkKRSLiIiISMlTKBYRERGRkqdQLCIiIiIlT6FYREREREqeQrGIiIiIlLz/H6on4cNanHETAAAAAElFTkSuQmCC;" vertex="1" parent="1">
          <mxGeometry x="-214" y="679" width="903" height="249.63" as="geometry" />
        </mxCell>
        <mxCell id="4JRhX6lgXvvM5bHSWxXY-54" value="首先，在一个夜黑风高的深夜，流量最小的时候，完成SqlServer到MySql数据库的全量数据同步。接着，开启双写，此时，如果有用户注册，就会实时双写到两个数据库。那么，在全量同步和实时双写开启之间，两个数据库还相差这段时间的数据，所以需要再次增量同步，把数据补充完整，以防数据的不一致。剩下的时间，就是各种日志监控，看双写是否有问题，看数据比对是否一致等等。这段时间是耗时最长的，也是最容易发生问题的，如果有的问题比较严重，导致数据不一致了，就需要从头再来，再次基于SqlServer全量构建MySql数据库，然后重新灰度流量，直到最后，100%的流量全部灰度到MySql，此时就大功告成了，下线灰度逻辑，所有读写都切到MySql集群。&lt;br&gt;博文地址：&lt;a href=&quot;https://mp.weixin.qq.com/s/9Nwtv8q7S1CUYvq197CjZg&quot;&gt;ES+Redis+MySQL，这个高可用架构设计太顶了！&lt;/a&gt;" style="rounded=0;whiteSpace=wrap;html=1;fontSize=16;" vertex="1" parent="1">
          <mxGeometry x="-300.5" y="957" width="1036" height="144" as="geometry" />
        </mxCell>
      </root>
    </mxGraphModel>
  </diagram>
</mxfile>
